<svg xmlns="http://www.w3.org/2000/svg" viewBox="0 0 285.02 97.62"><defs><style>.cls-1{fill:#fff;}</style></defs><g id="Layer_2" data-name="Layer 2"><g id="Layer_1-2" data-name="Layer 1"><path class="cls-1" d="M118.17,35.89A13.88,13.88,0,0,1,112,34.61a9.51,9.51,0,0,1-4-3.6,10.2,10.2,0,0,1-1.42-5.39V7.7h5.8V25.1a6.72,6.72,0,0,0,.68,3.1,4.93,4.93,0,0,0,2,2,7.2,7.2,0,0,0,6.32,0,4.84,4.84,0,0,0,2-2,6.84,6.84,0,0,0,.67-3.1V7.7h5.8V25.62A10.14,10.14,0,0,1,128.36,31a9.58,9.58,0,0,1-4,3.6A13.73,13.73,0,0,1,118.17,35.89Z"/><path class="cls-1" d="M141,35.41V12.48h-8V7.7h21.85v4.78h-8V35.41Z"/><path class="cls-1" d="M158,35.41V7.7h5.8V35.41Zm5.57-8.18V20.37H164L174.12,7.7h6.45L170.39,20.24h-1.13Zm10.73,8.18-8.87-13.12,4.19-3.82,11.63,16.94Z"/><path class="cls-1" d="M182,35.41,191.61,7.7h5.13v5.38H195L188,35.41Zm5.21-6.72,1.42-4.34H201.5l1.42,4.34ZM202,35.41l-6.91-22.33V7.7h3.36l9.65,27.71Z"/><path class="cls-1" d="M211,35.41V7.7h11.44a12.24,12.24,0,0,1,5.33,1.07,7.67,7.67,0,0,1,3.39,3,9.11,9.11,0,0,1,1.19,4.76v0a8.9,8.9,0,0,1-1.36,4.87,7.47,7.47,0,0,1-3.66,3l5.84,10.91h-6.58l-5.15-10h-4.65v10ZM216.74,21h5a4.71,4.71,0,0,0,3.38-1.15,4.16,4.16,0,0,0,1.23-3.19v0a4.09,4.09,0,0,0-1.27-3.17,4.85,4.85,0,0,0-3.41-1.17h-4.94Z"/><path class="cls-1" d="M246.24,35.89a15.72,15.72,0,0,1-5.74-1,9,9,0,0,1-3.86-2.79,7.65,7.65,0,0,1-1.56-4.36l0-.31h5.47l0,.21a3.4,3.4,0,0,0,1,1.85,5.21,5.21,0,0,0,2,1.21,8.52,8.52,0,0,0,2.82.43,7.9,7.9,0,0,0,2.77-.43A4,4,0,0,0,251,29.5a2.9,2.9,0,0,0,.63-1.85v0a2.58,2.58,0,0,0-1.1-2.2,9.85,9.85,0,0,0-3.68-1.31l-2.92-.6a12.34,12.34,0,0,1-6.17-2.77,6.69,6.69,0,0,1-2.08-5.1v0A7.42,7.42,0,0,1,237,11.21a9,9,0,0,1,3.74-2.93,13.27,13.27,0,0,1,5.46-1.06,13.89,13.89,0,0,1,5.53,1,8.47,8.47,0,0,1,3.64,2.82,7.87,7.87,0,0,1,1.44,4.25l0,.35h-5.47l0-.23a3.36,3.36,0,0,0-.81-1.86,4.54,4.54,0,0,0-1.78-1.19,7.75,7.75,0,0,0-5.09,0A3.65,3.65,0,0,0,242,13.55a2.8,2.8,0,0,0-.57,1.74h0a2.48,2.48,0,0,0,1.12,2.13,9.31,9.31,0,0,0,3.49,1.27l2.94.6a16.66,16.66,0,0,1,4.76,1.59,6.89,6.89,0,0,1,2.76,2.57,7.33,7.33,0,0,1,.89,3.71v0a8,8,0,0,1-1.34,4.62,8.47,8.47,0,0,1-3.83,3A15.36,15.36,0,0,1,246.24,35.89Z"/><path class="cls-1" d="M260.94,35.41V7.7h5.8V19h12.48V7.7H285V35.41h-5.8V23.75H266.74V35.41Z"/><path class="cls-1" d="M106.53,88.88V61.49h5.73V72.62h12.33V61.49h5.74V88.88h-5.74V77.36H112.26V88.88Z"/><path class="cls-1" d="M147.24,89.36a13.88,13.88,0,0,1-7-1.72,11.61,11.61,0,0,1-4.58-4.9A16.54,16.54,0,0,1,134,75.2v0a16.41,16.41,0,0,1,1.62-7.54,11.58,11.58,0,0,1,4.59-4.88,15.15,15.15,0,0,1,14,0,11.65,11.65,0,0,1,4.57,4.88,16.34,16.34,0,0,1,1.61,7.53v0a16.34,16.34,0,0,1-1.61,7.53,11.68,11.68,0,0,1-4.56,4.9A13.7,13.7,0,0,1,147.24,89.36Zm0-4.86a6.68,6.68,0,0,0,3.91-1.15,7.42,7.42,0,0,0,2.54-3.24,12.51,12.51,0,0,0,.89-4.91v0a12.36,12.36,0,0,0-.9-4.93A7.21,7.21,0,0,0,151.13,67a7.28,7.28,0,0,0-7.79,0,7.2,7.2,0,0,0-2.57,3.21,12.35,12.35,0,0,0-.9,4.94v0a12.36,12.36,0,0,0,.9,4.93,7.37,7.37,0,0,0,2.56,3.23A6.7,6.7,0,0,0,147.24,84.5Z"/><path class="cls-1" d="M174.13,89.36a15.3,15.3,0,0,1-5.67-1,8.87,8.87,0,0,1-3.81-2.75,7.61,7.61,0,0,1-1.55-4.32l0-.31h5.41l0,.21a3.33,3.33,0,0,0,1,1.83,5.14,5.14,0,0,0,2,1.2,8.6,8.6,0,0,0,2.79.43,8,8,0,0,0,2.74-.43A4,4,0,0,0,178.8,83a2.87,2.87,0,0,0,.62-1.83v0A2.53,2.53,0,0,0,178.33,79a9.88,9.88,0,0,0-3.63-1.3l-2.89-.59a12.11,12.11,0,0,1-6.1-2.74,6.64,6.64,0,0,1-2.06-5v0A7.3,7.3,0,0,1,165,65a9,9,0,0,1,3.7-2.91,13.25,13.25,0,0,1,5.39-1,13.6,13.6,0,0,1,5.47,1,8.35,8.35,0,0,1,3.6,2.79A7.74,7.74,0,0,1,184.6,69l0,.34h-5.41l0-.23a3.33,3.33,0,0,0-.81-1.84,4.53,4.53,0,0,0-1.76-1.17,7.74,7.74,0,0,0-5,0A3.63,3.63,0,0,0,170,67.27,2.83,2.83,0,0,0,169.4,69v0a2.48,2.48,0,0,0,1.1,2.1A9.47,9.47,0,0,0,174,72.37l2.9.59a16.74,16.74,0,0,1,4.71,1.57,6.85,6.85,0,0,1,2.72,2.54,7.2,7.2,0,0,1,.88,3.67v0a7.85,7.85,0,0,1-1.32,4.56,8.41,8.41,0,0,1-3.79,3A15.14,15.14,0,0,1,174.13,89.36Z"/><path class="cls-1" d="M188.66,88.88V61.49h5.74V88.88Zm5.51-8.08V74h.36l10-12.53h6.37l-10.05,12.4h-1.12Zm10.61,8.08-8.77-13,4.14-3.78,11.5,16.74Z"/><path class="cls-1" d="M225.27,89.36a13.87,13.87,0,0,1-7-1.72,11.55,11.55,0,0,1-4.58-4.9,16.41,16.41,0,0,1-1.61-7.54v0a16.41,16.41,0,0,1,1.62-7.54,11.58,11.58,0,0,1,4.59-4.88,15.15,15.15,0,0,1,14,0,11.71,11.71,0,0,1,4.57,4.88,16.47,16.47,0,0,1,1.61,7.53v0a16.47,16.47,0,0,1-1.61,7.53,11.71,11.71,0,0,1-4.57,4.9A13.67,13.67,0,0,1,225.27,89.36Zm0-4.86a6.69,6.69,0,0,0,3.92-1.15,7.42,7.42,0,0,0,2.54-3.24,12.51,12.51,0,0,0,.89-4.91v0a12.36,12.36,0,0,0-.9-4.93A7.3,7.3,0,0,0,229.16,67a6.73,6.73,0,0,0-3.89-1.13,6.8,6.8,0,0,0-3.9,1.13,7.25,7.25,0,0,0-2.56,3.21,12.35,12.35,0,0,0-.9,4.94v0a12.36,12.36,0,0,0,.9,4.93,7.35,7.35,0,0,0,2.55,3.23A6.72,6.72,0,0,0,225.27,84.5Z"/><path class="cls-1" d="M247.19,88.88V66.22h-7.93V61.49h21.6v4.73h-7.94V88.88Z"/><path class="cls-1" d="M264,88.88V61.49h18.14v4.73H269.76v6.57h11.71v4.49H269.76v6.87h12.41v4.73Z"/><path class="cls-1" d="M87.47,2.64V70.76a12.11,12.11,0,0,1-7.31,11.12L57.7,91.56,47.36,66.41,50.3,65.2a4.28,4.28,0,0,0,2.32-5.58L36,19.18v-.05l11.55-3,15.9,38.65a4.61,4.61,0,0,0,6,2.51L77.33,54A4.91,4.91,0,0,0,80,47.62L63.73,8.08,83.48.21a3,3,0,0,1,2.64.22l.15.09A2.47,2.47,0,0,1,87.47,2.64Z"/><path class="cls-1" d="M44.5,68.21l-2.79,1.15a4.55,4.55,0,0,1-5.93-2.48L12.16,9.47A5.54,5.54,0,0,0,5.61,6.22L0,7.71c.25.83.5,1.66.74,2.48,2-.54,5-1,7,.6a5.52,5.52,0,0,1,1.22,1.53C11.65,17.56,14,63.89,22.92,84c2.16,4.87,5.25,9.48,10.21,11.79a19,19,0,0,0,15.59.23l6.15-2.65Z"/></g></g></svg>