<svg xmlns="http://www.w3.org/2000/svg" viewBox="0 0 285.02 103.18"><defs><style>.cls-1{fill:#414042;}.cls-2{fill:#fff;}.cls-3{fill:#a7a9ac;}</style></defs><g id="Layer_2" data-name="Layer 2"><g id="Layer_1-2" data-name="Layer 1"><path class="cls-1" d="M73.52,97.37l-56.37,3.09c-5.84.58-4.17,2.72,2.11,2.72H67.65c9,0,16.3-1.8,16.3-4l-1.17-.23C82.78,97.74,78,96.93,73.52,97.37Z"/><path class="cls-2" d="M118.17,37.21A13.88,13.88,0,0,1,112,35.93a9.51,9.51,0,0,1-4-3.6,10.21,10.21,0,0,1-1.42-5.4V9h5.8v17.4a6.72,6.72,0,0,0,.68,3.1,4.93,4.93,0,0,0,2,2,7.2,7.2,0,0,0,6.32,0,4.84,4.84,0,0,0,2-2,6.84,6.84,0,0,0,.67-3.1V9h5.8V26.93a10.15,10.15,0,0,1-1.41,5.39,9.58,9.58,0,0,1-4,3.6A13.73,13.73,0,0,1,118.17,37.21Z"/><path class="cls-2" d="M141,36.73V13.8h-8V9h21.85V13.8h-8V36.73Z"/><path class="cls-2" d="M158,36.73V9h5.8V36.73Zm5.57-8.18V21.69H164L174.12,9h6.45L170.39,21.56h-1.13Zm10.73,8.18-8.87-13.12,4.19-3.82,11.63,16.94Z"/><path class="cls-2" d="M182,36.73,191.61,9h5.13V14.4H195L188,36.73ZM187.16,30l1.42-4.34H201.5L202.92,30ZM202,36.73,195.09,14.4V9h3.36l9.65,27.71Z"/><path class="cls-2" d="M211,36.73V9h11.44a12.24,12.24,0,0,1,5.33,1.07,7.67,7.67,0,0,1,3.39,3,9.11,9.11,0,0,1,1.19,4.76v0a8.9,8.9,0,0,1-1.36,4.87,7.47,7.47,0,0,1-3.66,3l5.84,10.91h-6.58l-5.15-10h-4.65v10Zm5.79-14.44h5a4.76,4.76,0,0,0,3.38-1.15A4.16,4.16,0,0,0,226.36,18v0a4.09,4.09,0,0,0-1.27-3.17,4.85,4.85,0,0,0-3.41-1.17h-4.94Z"/><path class="cls-2" d="M246.24,37.21a15.72,15.72,0,0,1-5.74-1,9,9,0,0,1-3.86-2.79,7.65,7.65,0,0,1-1.56-4.36l0-.31h5.47l0,.21a3.4,3.4,0,0,0,1,1.85,5.21,5.21,0,0,0,2,1.21,8.52,8.52,0,0,0,2.82.43,7.9,7.9,0,0,0,2.77-.43,4,4,0,0,0,1.8-1.23,2.9,2.9,0,0,0,.63-1.85v0a2.58,2.58,0,0,0-1.1-2.2,9.85,9.85,0,0,0-3.68-1.31l-2.92-.6a12.34,12.34,0,0,1-6.17-2.77,6.69,6.69,0,0,1-2.08-5.1v0A7.42,7.42,0,0,1,237,12.53a9,9,0,0,1,3.74-2.93,13.27,13.27,0,0,1,5.46-1.06,13.89,13.89,0,0,1,5.53,1,8.47,8.47,0,0,1,3.64,2.82,7.87,7.87,0,0,1,1.44,4.25l0,.35h-5.47l0-.23a3.36,3.36,0,0,0-.81-1.86,4.43,4.43,0,0,0-1.78-1.19,7.75,7.75,0,0,0-5.09,0A3.65,3.65,0,0,0,242,14.87a2.79,2.79,0,0,0-.57,1.73v0a2.48,2.48,0,0,0,1.12,2.13A9.31,9.31,0,0,0,246.06,20l2.94.6a16.66,16.66,0,0,1,4.76,1.59,6.94,6.94,0,0,1,2.76,2.56,7.37,7.37,0,0,1,.89,3.72v0a8,8,0,0,1-1.34,4.62,8.47,8.47,0,0,1-3.83,3A15.36,15.36,0,0,1,246.24,37.21Z"/><path class="cls-2" d="M260.94,36.73V9h5.8V20.27h12.48V9H285V36.73h-5.8V25.07H266.74V36.73Z"/><path class="cls-2" d="M106.53,90.2V62.81h5.73V73.94h12.33V62.81h5.74V90.2h-5.74V78.68H112.26V90.2Z"/><path class="cls-2" d="M147.24,90.67a13.88,13.88,0,0,1-7-1.71,11.61,11.61,0,0,1-4.58-4.9A16.54,16.54,0,0,1,134,76.52v0a16.41,16.41,0,0,1,1.62-7.54,11.58,11.58,0,0,1,4.59-4.88,15.15,15.15,0,0,1,14,0A11.65,11.65,0,0,1,158.83,69a16.34,16.34,0,0,1,1.61,7.53v0a16.34,16.34,0,0,1-1.61,7.53,11.68,11.68,0,0,1-4.56,4.9A13.69,13.69,0,0,1,147.24,90.67Zm0-4.85a6.68,6.68,0,0,0,3.91-1.15,7.42,7.42,0,0,0,2.54-3.24,12.51,12.51,0,0,0,.89-4.91v0a12.45,12.45,0,0,0-.9-4.94,7.23,7.23,0,0,0-2.55-3.21,7.28,7.28,0,0,0-7.79,0,7.23,7.23,0,0,0-2.57,3.2,12.43,12.43,0,0,0-.9,5v0a12.4,12.4,0,0,0,.9,4.93,7.37,7.37,0,0,0,2.56,3.23A6.7,6.7,0,0,0,147.24,85.82Z"/><path class="cls-2" d="M174.13,90.67a15.31,15.31,0,0,1-5.67-1A8.8,8.8,0,0,1,164.65,87a7.56,7.56,0,0,1-1.55-4.31l0-.31h5.41l0,.21a3.33,3.33,0,0,0,1,1.83,5.14,5.14,0,0,0,2,1.2,8.6,8.6,0,0,0,2.79.43,8,8,0,0,0,2.74-.43,4,4,0,0,0,1.78-1.22,2.87,2.87,0,0,0,.62-1.83v0a2.53,2.53,0,0,0-1.09-2.17A9.88,9.88,0,0,0,174.7,79l-2.89-.59a12.11,12.11,0,0,1-6.1-2.74,6.64,6.64,0,0,1-2.06-5v0A7.3,7.3,0,0,1,165,66.29a9,9,0,0,1,3.7-2.91,13.25,13.25,0,0,1,5.39-1,13.6,13.6,0,0,1,5.47,1,8.35,8.35,0,0,1,3.6,2.79,7.74,7.74,0,0,1,1.42,4.2l0,.34h-5.41l0-.23a3.33,3.33,0,0,0-.81-1.84,4.42,4.42,0,0,0-1.76-1.17,7.74,7.74,0,0,0-5,0A3.55,3.55,0,0,0,170,68.59a2.83,2.83,0,0,0-.56,1.72v0a2.48,2.48,0,0,0,1.1,2.1A9.47,9.47,0,0,0,174,73.69l2.9.59a16.74,16.74,0,0,1,4.71,1.57,6.85,6.85,0,0,1,2.72,2.54,7.17,7.17,0,0,1,.88,3.67v0a7.85,7.85,0,0,1-1.32,4.56,8.41,8.41,0,0,1-3.79,3A15.15,15.15,0,0,1,174.13,90.67Z"/><path class="cls-2" d="M188.66,90.2V62.81h5.74V90.2Zm5.51-8.09V75.34h.36l10-12.53h6.37l-10.05,12.4h-1.12Zm10.61,8.09-8.77-13,4.14-3.78,11.5,16.74Z"/><path class="cls-2" d="M225.27,90.67a13.87,13.87,0,0,1-7-1.71,11.55,11.55,0,0,1-4.58-4.9,16.41,16.41,0,0,1-1.61-7.54v0a16.41,16.41,0,0,1,1.62-7.54,11.58,11.58,0,0,1,4.59-4.88,15.15,15.15,0,0,1,14,0A11.71,11.71,0,0,1,236.87,69a16.47,16.47,0,0,1,1.61,7.53v0a16.47,16.47,0,0,1-1.61,7.53A11.71,11.71,0,0,1,232.3,89,13.67,13.67,0,0,1,225.27,90.67Zm0-4.85a6.69,6.69,0,0,0,3.92-1.15,7.42,7.42,0,0,0,2.54-3.24,12.51,12.51,0,0,0,.89-4.91v0a12.45,12.45,0,0,0-.9-4.94,7.32,7.32,0,0,0-2.56-3.21,6.65,6.65,0,0,0-3.89-1.13,6.73,6.73,0,0,0-3.9,1.13,7.28,7.28,0,0,0-2.56,3.2,12.43,12.43,0,0,0-.9,5v0a12.4,12.4,0,0,0,.9,4.93,7.35,7.35,0,0,0,2.55,3.23A6.72,6.72,0,0,0,225.27,85.82Z"/><path class="cls-2" d="M247.19,90.2V67.54h-7.93V62.81h21.6v4.73h-7.94V90.2Z"/><path class="cls-2" d="M264,90.2V62.81h18.14v4.73H269.76v6.57h11.71V78.6H269.76v6.87h12.41V90.2Z"/><path class="cls-1" d="M84.74,0H38.21A4.53,4.53,0,0,0,34,2.93a13.1,13.1,0,0,0-.72,5.8A48.92,48.92,0,0,0,35.92,20.5l11.13-4.43,16.46,40a4.6,4.6,0,0,0,6,2.51l7.88-3.24a4.91,4.91,0,0,0,2.67-6.4L63.8,9.4,84.93,1A.51.51,0,0,0,84.74,0Z"/><path class="cls-3" d="M84.9,0h-.23a.51.51,0,0,1,.19,1L63.73,9.4,80,48.94a4.91,4.91,0,0,1-2.67,6.4l-7.88,3.24a4.61,4.61,0,0,1-6-2.51L47,16.07,36,20.45v.05L52.62,60.94a4.28,4.28,0,0,1-2.32,5.58l-2.94,1.21L57.7,92.88,80.16,83.2a12.11,12.11,0,0,0,7.31-11.12V2.57A2.57,2.57,0,0,0,84.9,0Z"/><path class="cls-3" d="M44.5,69.53l-2.79,1.15a4.55,4.55,0,0,1-5.93-2.48L12.16,10.79A5.53,5.53,0,0,0,5.61,7.54L0,9c.25.83.5,1.66.74,2.48,2-.54,5-1,7,.6a5.52,5.52,0,0,1,1.22,1.53c2.73,5.24,5.09,51.57,14,71.72,2.16,4.87,5.25,9.48,10.21,11.79a19,19,0,0,0,15.59.23l6.15-2.65Z"/><path class="cls-1" d="M.74,11.64,0,9.16l5.61-1.5s5.51-2.47,7.9,6.53L19.2,28l-7.39,2.41s0-1.3-2-13.42c0,0-.27-4.1-3.44-5.5C4.31,10.58.74,11.64.74,11.64Z"/></g></g></svg>